<svg width="91" height="24" viewBox="0 0 91 24" fill="none" xmlns="http://www.w3.org/2000/svg">
<g clip-path="url(#clip0_378_84392)">
<path d="M46.1967 18.1921C49.3943 18.1921 51.9865 15.4108 51.9865 11.9798C51.9865 8.5489 49.3943 5.76758 46.1967 5.76758C42.9991 5.76758 40.407 8.5489 40.407 11.9798C40.407 15.4108 42.9991 18.1921 46.1967 18.1921Z" fill="#FEDD00"/>
<path d="M60.5573 18.0528C60.5573 18.2235 60.5264 18.3839 60.4676 18.5329C60.4078 18.6829 60.3046 18.8143 60.159 18.9281C60.0134 19.042 59.807 19.1309 59.5419 19.1951C59.2767 19.2592 58.9392 19.2913 58.5274 19.2913C57.6441 19.2913 56.9729 19.0533 56.512 18.5763C56.052 18.1004 55.8205 17.3989 55.8205 16.4739V11.0935H55.2034C54.8987 11.0935 54.6393 10.9755 54.4281 10.7407C54.215 10.5058 54.1089 10.2182 54.1089 9.87671C54.1089 9.56423 54.215 9.29315 54.4281 9.06552C54.6402 8.83788 54.8987 8.72407 55.2034 8.72407H55.8205V7.12341C55.8205 6.75403 55.943 6.43741 56.187 6.17357C56.43 5.91076 56.7357 5.77832 57.105 5.77832C57.4464 5.77832 57.7395 5.90973 57.9835 6.17357C58.2275 6.43741 58.349 6.75403 58.349 7.12341V8.72407H59.3432C59.6344 8.72407 59.8861 8.84202 60.0992 9.0769C60.3114 9.31177 60.4175 9.59321 60.4175 9.92017C60.4175 10.2471 60.3114 10.5255 60.0992 10.7531C59.8861 10.9807 59.6344 11.0945 59.3432 11.0945H58.349V15.7485C58.349 16.1614 58.4445 16.4532 58.6364 16.6239C58.8283 16.7946 59.025 16.8805 59.2236 16.8805H59.4425C59.8003 16.8805 60.0761 16.9943 60.268 17.2219C60.4608 17.4496 60.5573 17.7269 60.5573 18.0549V18.0528Z" fill="#007CFF"/>
<path d="M64.1774 17.8179C64.1774 18.1883 64.0549 18.5049 63.809 18.7678C63.5631 19.0306 63.2613 19.163 62.9035 19.163C62.5458 19.163 62.2642 19.0316 62.0183 18.7678C61.7724 18.5039 61.6499 18.1883 61.6499 17.8179V9.91912C61.6499 9.54974 61.7724 9.23623 62.0183 8.97963C62.2642 8.72303 62.5718 8.59473 62.9431 8.59473C63.2883 8.59473 63.5805 8.72303 63.8187 8.97963C64.0578 9.23623 64.1764 9.54871 64.1764 9.91912V17.8179H64.1774Z" fill="#007CFF"/>
<path d="M74.1251 17.7972C74.1251 18.1251 74.0084 18.4345 73.776 18.7253C73.5436 19.017 73.2418 19.1629 72.8706 19.1629C72.6719 19.1629 72.4761 19.1164 72.2843 19.0243C72.0914 18.9322 71.9352 18.7863 71.8156 18.5866L69.5678 15.0645L68.4135 16.3879V17.8178C68.4135 18.1883 68.291 18.5049 68.0451 18.7677C67.7992 19.0305 67.4983 19.1629 67.1396 19.1629C66.7809 19.1629 66.4993 19.0315 66.2544 18.7677C66.0094 18.5038 65.887 18.1883 65.887 17.8178V5.99139C65.887 5.62201 66.0094 5.3085 66.2544 5.0519C66.5003 4.79529 66.8089 4.66699 67.1792 4.66699C67.5234 4.66699 67.8166 4.79529 68.0557 5.0519C68.2939 5.3085 68.4135 5.62097 68.4135 5.99139V13.3139L71.8156 9.00129C72.0412 8.71675 72.3257 8.57396 72.6719 8.57396C72.9901 8.57396 73.2688 8.70227 73.507 8.95783C73.7462 9.21443 73.8657 9.51242 73.8657 9.85387C73.8657 10.1529 73.7732 10.424 73.587 10.6651L71.3595 13.3977L73.886 17.0273C74.0451 17.2695 74.1251 17.5261 74.1251 17.7961V17.7972Z" fill="#007CFF"/>
<path d="M84.0723 13.5067C84.0723 13.8337 83.9585 14.1223 83.7338 14.3717C83.5091 14.621 83.2304 14.7452 82.8987 14.7452H76.9701C77.0096 15.0732 77.0993 15.3826 77.2381 15.6733C77.377 15.9651 77.5631 16.2176 77.7955 16.4307C78.0279 16.6449 78.3066 16.8156 78.6306 16.9429C78.9556 17.0712 79.324 17.1353 79.7357 17.1353C79.9999 17.1353 80.3027 17.0929 80.6403 17.007C80.9778 16.9222 81.2998 16.7939 81.6055 16.6221C81.7646 16.5373 81.9305 16.4949 82.1031 16.4949C82.3683 16.4949 82.6132 16.5942 82.8389 16.7929C83.0645 16.9925 83.1774 17.2554 83.1774 17.5834C83.1774 17.9393 83.0308 18.2093 82.7396 18.3945C82.2613 18.707 81.7405 18.9357 81.1774 19.0774C80.6142 19.2192 80.0405 19.2906 79.457 19.2906C78.7271 19.2906 78.0472 19.1623 77.4185 18.9067C76.7878 18.6501 76.2439 18.288 75.7859 17.8182C75.3288 17.3485 74.971 16.7794 74.7116 16.111C74.4532 15.4416 74.324 14.6955 74.324 13.8688C74.324 13.129 74.4464 12.4275 74.6923 11.7663C74.9373 11.1042 75.2786 10.532 75.7174 10.0477C76.1542 9.56454 76.6788 9.17964 77.2892 8.8951C77.8987 8.61056 78.5699 8.46777 79.2979 8.46777C79.8418 8.46777 80.349 8.54951 80.8206 8.71299C81.2912 8.87647 81.7184 9.10824 82.1041 9.40623C82.4888 9.70526 82.8235 10.0715 83.1089 10.5061C83.3924 10.9407 83.6229 11.4208 83.7945 11.9464C83.8601 12.1885 83.9238 12.4451 83.9826 12.7152C84.0424 12.9852 84.0723 13.2491 84.0723 13.5046V13.5067ZM81.6653 12.9086C81.6518 12.6665 81.5978 12.411 81.5062 12.1399C81.4136 11.8698 81.2738 11.6246 81.0877 11.4032C80.9025 11.1828 80.6605 10.9976 80.3616 10.8486C80.0636 10.6986 79.7087 10.6241 79.297 10.6241C78.8852 10.6241 78.5573 10.6955 78.2719 10.8372C77.9865 10.98 77.7521 11.1611 77.566 11.3814C77.3799 11.6018 77.2343 11.8471 77.1282 12.1171C77.0221 12.3882 76.9566 12.651 76.9296 12.9076H81.6644L81.6653 12.9086Z" fill="#007CFF"/>
<path d="M90.3788 18.0528C90.3788 18.2235 90.3489 18.3839 90.2892 18.5329C90.2303 18.6829 90.1272 18.8143 89.9815 18.9281C89.835 19.042 89.6296 19.1309 89.3644 19.1951C89.0982 19.2592 88.7598 19.2913 88.3499 19.2913C87.4666 19.2913 86.7954 19.0533 86.3355 18.5763C85.8755 18.1004 85.645 17.3989 85.645 16.4739V11.0935H85.0278C84.7231 11.0935 84.4637 10.9755 84.2516 10.7407C84.0394 10.5058 83.9333 10.2182 83.9333 9.87671C83.9333 9.56423 84.0394 9.29315 84.2516 9.06552C84.4637 8.83788 84.7231 8.72407 85.0278 8.72407H85.645V7.12341C85.645 6.75403 85.7665 6.43741 86.0105 6.17357C86.2535 5.91076 86.5592 5.77832 86.9276 5.77832C87.2689 5.77832 87.5621 5.90973 87.8051 6.17357C88.0481 6.43741 88.1706 6.75403 88.1706 7.12341V8.72407H89.1648C89.456 8.72407 89.7077 8.84202 89.9208 9.0769C90.1339 9.31177 90.239 9.5932 90.239 9.92017C90.239 10.2471 90.1339 10.5255 89.9208 10.7531C89.7077 10.9807 89.456 11.0945 89.1648 11.0945H88.1706V15.7485C88.1706 16.1614 88.266 16.4532 88.4589 16.6239C88.6508 16.7946 88.8465 16.8805 89.0452 16.8805H89.2641C89.6228 16.8805 89.8976 16.9943 90.0895 17.2219C90.2814 17.4496 90.3779 17.7269 90.3779 18.0549L90.3788 18.0528Z" fill="#007CFF"/>
<path d="M29.3683 12.0166C29.1368 11.3844 28.8177 10.8381 28.4204 10.3922C28.0231 9.94727 27.5505 9.59548 27.0192 9.34922C27.0115 9.34508 26.2613 8.95294 25.3837 8.97363C24.8505 8.98605 24.5602 9.1278 24.3278 9.26231L24.2642 9.3037C24.1677 9.37302 23.9247 9.54581 23.7058 9.83346C23.2883 10.3818 23.2314 11.2541 23.3182 11.8873L23.3529 12.1387L23.5245 11.9753C23.6778 11.8294 23.9614 11.6141 24.3722 11.5065C24.592 11.4486 24.8215 11.4424 25.0452 11.4755C25.5795 11.5541 26.0356 11.8035 26.403 12.2215C26.8495 12.7306 27.0761 13.3876 27.0761 14.175C27.0761 14.9624 26.8485 15.6122 26.3992 16.1016C25.9488 16.592 25.3722 16.8403 24.6856 16.8403C23.999 16.8403 23.4165 16.5993 22.9729 16.1233C22.2622 15.3618 22.3124 13.8615 22.3133 13.8398V4.99216C22.3133 4.94664 22.2863 4.90732 22.2458 4.89387L21.9594 4.80075C21.7126 4.72107 21.4281 4.67969 21.1137 4.67969C20.6875 4.67969 20.3461 4.77384 20.0983 4.95802C19.8765 5.12357 19.7646 5.4288 19.7646 5.86544V13.6908C19.7646 14.5258 19.8437 15.2562 20.0009 15.8636C20.1552 16.4616 20.376 16.9697 20.6576 17.3732C21.1079 18.0085 21.6914 18.4989 22.3905 18.83C23.0973 19.1642 23.8948 19.3339 24.7598 19.3339C25.4676 19.3339 26.132 19.2067 26.7347 18.9573C27.3374 18.708 27.8649 18.3551 28.3046 17.9092C28.7434 17.4643 29.0915 16.9159 29.3413 16.2785C29.591 15.6401 29.7183 14.9262 29.7183 14.1553C29.7183 13.3845 29.6007 12.6499 29.3673 12.0166H29.3683Z" fill="#007CFF"/>
<path d="M13.9635 4.80465C13.7089 4.72395 13.4215 4.68359 13.1071 4.68359C12.6809 4.68359 12.3395 4.77775 12.0917 4.96192C11.8699 5.12747 11.7581 5.43271 11.7581 5.86934V19.0543H14.326V4.92054L13.9644 4.80465H13.9635Z" fill="#007CFF"/>
<path d="M17.1302 7.7462C17.5342 7.7462 17.8795 7.59928 18.1543 7.3106C18.4282 7.02192 18.567 6.65668 18.567 6.22522C18.567 5.79375 18.4282 5.42334 18.1524 5.12845C17.8775 4.83357 17.5333 4.68457 17.1302 4.68457C16.7271 4.68457 16.3877 4.83357 16.1186 5.12742C15.8486 5.4223 15.7126 5.79272 15.7126 6.22625C15.7126 6.65978 15.8486 7.02503 16.1177 7.31267C16.3867 7.60135 16.7271 7.74724 17.1312 7.74724L17.1302 7.7462Z" fill="#007CFF"/>
<path d="M17.2055 9.2608C16.7793 9.2608 16.4379 9.35496 16.1901 9.53913C15.9683 9.70468 15.8564 10.0099 15.8564 10.4465V19.0531H18.4244V9.49774L18.0618 9.38082C17.8082 9.30012 17.5199 9.25977 17.2055 9.25977V9.2608Z" fill="#007CFF"/>
<path d="M33.0694 4.80465C32.8158 4.72395 32.5274 4.68359 32.2131 4.68359C31.7869 4.68359 31.4455 4.77775 31.1977 4.96192C30.9759 5.12747 30.863 5.43271 30.863 5.86934V19.0543H33.431V4.92054L33.0684 4.80465H33.0694Z" fill="#007CFF"/>
<path d="M36.1793 7.7462C36.5833 7.7462 36.9285 7.59928 37.2034 7.3106C37.4772 7.02296 37.6161 6.65772 37.6161 6.22522C37.6161 5.79272 37.4772 5.42334 37.2014 5.12845C36.9266 4.83357 36.5823 4.68457 36.1793 4.68457C35.7762 4.68457 35.4358 4.83357 35.1677 5.12742C34.8977 5.4223 34.7617 5.79272 34.7617 6.22625C34.7617 6.65978 34.8977 7.02503 35.1667 7.31371C35.4348 7.60135 35.7762 7.74827 36.1802 7.74827L36.1793 7.7462Z" fill="#007CFF"/>
<path d="M36.2536 9.26074C35.8274 9.26074 35.486 9.3549 35.2382 9.53907C35.0164 9.70462 34.9036 10.0099 34.9036 10.4465V19.053H37.4715V9.49769L37.109 9.3818C36.8553 9.3011 36.568 9.26074 36.2526 9.26074H36.2536Z" fill="#007CFF"/>
<path d="M10.2247 12.0166C9.99329 11.3844 9.6741 10.8381 9.27681 10.3922C8.87951 9.94727 8.40699 9.59548 7.87565 9.34922C7.86794 9.34508 7.1177 8.95294 6.24017 8.97363C5.7069 8.98605 5.41664 9.1278 5.18424 9.26231L5.1206 9.3037C5.02417 9.37302 4.78116 9.54581 4.56226 9.83346C4.14471 10.3818 4.08781 11.2541 4.1746 11.8873L4.20932 12.1387L4.38097 11.9753C4.53429 11.8294 4.8178 11.6141 5.2286 11.5065C5.44847 11.4486 5.67797 11.4424 5.90169 11.4755C6.43593 11.5541 6.89205 11.8035 7.25945 12.2215C7.70593 12.7306 7.93255 13.3876 7.93255 14.175C7.93255 14.9624 7.70497 15.6122 7.2556 16.1016C6.80526 16.592 6.2286 16.8403 5.542 16.8403C4.85541 16.8403 4.27296 16.5993 3.82938 16.1233C3.11868 15.3618 3.16882 13.8615 3.16978 13.8398V4.99216C3.16978 4.94664 3.14278 4.90732 3.10228 4.89387L2.81588 4.80075C2.56901 4.72004 2.28454 4.67969 1.97017 4.67969C1.54491 4.67969 1.20354 4.77384 0.954748 4.95802C0.733919 5.12357 0.621094 5.4288 0.621094 5.86544V13.6908C0.621094 14.5258 0.700168 15.2562 0.857351 15.8636C1.01164 16.4616 1.23247 16.9697 1.51405 17.3732C1.96439 18.0085 2.5478 18.4989 3.24693 18.83C3.95377 19.1642 4.75126 19.3339 5.61626 19.3339C6.32407 19.3339 6.98848 19.2067 7.59118 18.9573C8.19388 18.708 8.72136 18.3551 9.16109 17.9092C9.59985 17.4643 9.94797 16.9159 10.1977 16.2785C10.4475 15.6401 10.5748 14.9262 10.5748 14.1553C10.5748 13.3845 10.4571 12.6499 10.2238 12.0166H10.2247Z" fill="#007CFF"/>
</g>
<defs>
<clipPath id="clip0_378_84392">
<rect width="91" height="16" fill="white" transform="translate(0 4)"/>
</clipPath>
</defs>
</svg>
